# xmcd
#
# Track frame offsets: 
#        150
#        14064
#        44600
#        74965
#        109912
#        139956
#        170410
#        195985
#        231335
#
# Disc length: 3335 seconds
#
# Revision: 2
# Processed by: cddbd v1.5.2PL0 Copyright (c) Steve Scherf et al.
# Submitted via: ExactAudioCopy v1.0b6
#
DISCID=8c0d0509
DTITLE=Surgeon - Breaking The Frame
DYEAR=2011
DGENRE=Techno
TTITLE0=Dark Matter
TTITLE1=Transparent Radiation
TTITLE2=Remover Of Darkness
TTITLE3=The Power Of Doubt
TTITLE4=Radiance
TTITLE5=Presence
TTITLE6=We Are All Already Here
TTITLE7=Those Who Do Not
TTITLE8=Not-Two
EXTD=
EXTT0=
EXTT1=
EXTT2=
EXTT3=
EXTT4=
EXTT5=
EXTT6=
EXTT7=
EXTT8=
PLAYORDER=
